<svg width="17" height="16" viewBox="0 0 17 16" fill="none" xmlns="http://www.w3.org/2000/svg">
<path opacity="0.5" fill-rule="evenodd" clip-rule="evenodd" d="M8.4104 0C3.99212 0 0.4104 3.58172 0.4104 8C0.4104 12.4183 3.99212 16 8.4104 16C12.8287 16 16.4104 12.4183 16.4104 8C16.4104 3.58172 12.8287 0 8.4104 0ZM9.27915 13.3193V11.1053C9.27915 10.8773 9.16515 10.7633 8.93715 10.7633H7.33515C7.09515 10.7633 6.97515 10.8833 6.97515 11.1233V13.3013C6.97515 13.5653 7.09515 13.6973 7.33515 13.6973H8.93715C9.16515 13.6973 9.27915 13.5713 9.27915 13.3193ZM9.26115 9.21533V8.74733C9.26115 8.45933 9.41715 8.17133 9.72915 7.88333L10.9531 6.89333C11.4931 6.42533 11.7631 5.89733 11.7631 5.30933V5.05733C11.7631 4.12133 11.5051 3.40133 10.9891 2.89733C10.4731 2.39333 9.74115 2.14133 8.79315 2.14133H7.73115C6.78315 2.14133 6.05115 2.39333 5.53515 2.89733C5.01915 3.40133 4.76115 4.12133 4.76115 5.05733V5.47133C4.76115 5.73533 4.88715 5.86733 5.13915 5.86733H6.66915C6.92115 5.86733 7.04715 5.73533 7.04715 5.47133V5.09333C7.04715 4.70933 7.12515 4.43933 7.28115 4.28333C7.44915 4.12733 7.71915 4.04933 8.09115 4.04933H8.41515C8.81115 4.04933 9.09315 4.13333 9.26115 4.30133C9.44115 4.45733 9.53115 4.72133 9.53115 5.09333V5.20133C9.53115 5.56133 9.33915 5.89133 8.95515 6.19133L7.94715 7.01933C7.63515 7.27133 7.41315 7.52333 7.28115 7.77533C7.14915 8.01533 7.08315 8.33333 7.08315 8.72933V9.21533C7.08315 9.46733 7.20915 9.59333 7.46115 9.59333H8.88315C9.13515 9.59333 9.26115 9.46733 9.26115 9.21533Z" fill="white"/>
</svg>
